<svg width="121" height="86" viewBox="0 0 121 86" fill="none" xmlns="http://www.w3.org/2000/svg">
    <path d="M34.551 0H17.2696V17.1207H34.551V0Z" fill="black" />
    <path d="M103.704 0H86.4229V17.1207H103.704V0Z" fill="black" />
    <path d="M51.8325 17.121H17.2696V34.2416H51.8325V17.121Z" fill="black" />
    <path d="M103.708 17.121H69.145V34.2416H103.708V17.121Z" fill="black" />
    <path d="M103.687 34.2419H17.2696V51.3626H103.687V34.2419Z" fill="black" />
    <path d="M34.551 51.3623H17.2696V68.483H34.551V51.3623Z" fill="black" />
    <path d="M69.1235 51.3623H51.8421V68.483H69.1235V51.3623Z" fill="black" />
    <path d="M103.704 51.3623H86.4229V68.483H103.704V51.3623Z" fill="black" />
    <path d="M51.855 68.4932H0V85.6138H51.855V68.4932Z" fill="black" />
    <path d="M121 68.4933H69.145V85.614H121V68.4933Z" fill="black" />
    <path d="M34.551 0H17.2696V17.1207H34.551V0Z" fill="#FFD800" />
    <path d="M103.704 0H86.4229V17.1207H103.704V0Z" fill="#FFD800" />
    <path d="M51.8325 17.121H17.2696V34.2416H51.8325V17.121Z" fill="#FFAF00" />
    <path d="M103.7 17.121H69.1367V34.2416H103.7V17.121Z" fill="#FFAF00" />
    <path d="M103.687 34.2419H17.2696V51.3626H103.687V34.2419Z" fill="#FF8205" />
    <path d="M34.551 51.3623H17.2696V68.483H34.551V51.3623Z" fill="#FA500F" />
    <path d="M69.1235 51.3623H51.8421V68.483H69.1235V51.3623Z" fill="#FA500F" />
    <path d="M103.704 51.3623H86.4229V68.483H103.704V51.3623Z" fill="#FA500F" />
    <path d="M51.855 68.4932H0V85.6138H51.855V68.4932Z" fill="#E10500" />
    <path d="M120.992 68.4933H69.1367V85.614H120.992V68.4933Z" fill="#E10500" />
</svg>