<svg width="20" height="13" viewBox="0 0 20 13" fill="none" xmlns="http://www.w3.org/2000/svg">
<g clip-path="url(#clip0_1907_1800)">
<path d="M2.13967 8.50364C2.13967 9.2449 2.30569 9.81402 2.52269 10.1583C2.8072 10.6093 3.23155 10.8003 3.66416 10.8003C4.22216 10.8003 4.73263 10.6646 5.71635 9.3313C6.50443 8.26262 7.43304 6.76252 8.05786 5.8221L9.11598 4.22886C9.85102 3.12236 10.7018 1.89232 11.6773 1.05856C12.4736 0.378062 13.3326 0 14.1972 0C15.6487 0 17.0312 0.824302 18.0894 2.3703C19.2474 4.06346 19.8095 6.19612 19.8095 8.39696C19.8095 9.70532 19.5464 10.6667 19.0986 11.4262C18.666 12.1607 17.8228 12.8945 16.4044 12.8945V10.8003C17.6189 10.8003 17.922 9.70666 17.922 8.45502C17.922 6.6714 17.4976 4.69198 16.5628 3.27764C15.8994 2.27444 15.0397 1.66143 14.0939 1.66143C13.0709 1.66143 12.2477 2.41756 11.3225 3.76574C10.8306 4.48202 10.3257 5.35494 9.75871 6.33992L9.13459 7.42346C7.88082 9.60202 7.56325 10.0982 6.93637 10.9171C5.83759 12.3511 4.89933 12.8945 3.66416 12.8945C2.19892 12.8945 1.27236 12.2727 0.698525 11.3357C0.230084 10.5722 0 9.5703 0 8.4287L2.13967 8.50364Z" fill="#0081FB"/>
<path d="M1.63281 2.51814C2.61377 1.03628 4.02945 0 5.65314 0C6.59347 0 7.52828 0.272744 8.50442 1.05384C9.5722 1.90785 10.7102 3.3141 12.13 5.63174L12.6391 6.46346C13.8681 8.46988 14.5673 9.50212 14.9765 9.98886C15.5028 10.614 15.8713 10.8003 16.3501 10.8003C17.5646 10.8003 17.8677 9.70666 17.8677 8.45502L19.7553 8.39696C19.7553 9.70532 19.4921 10.6667 19.0443 11.4262C18.6117 12.1607 17.7685 12.8945 16.3501 12.8945C15.4683 12.8945 14.6871 12.7068 13.8233 11.9082C13.1592 11.2952 12.3828 10.2062 11.7856 9.22734L10.0089 6.31898C9.11753 4.8594 8.29983 3.77114 7.82657 3.2783C7.31747 2.74836 6.66304 2.10836 5.61869 2.10836C4.77342 2.10836 4.05561 2.68962 3.45491 3.57874L1.63281 2.51814Z" fill="url(#paint0_linear_1907_1800)"/>
<path d="M5.67296 2.10836C4.82769 2.10836 4.10988 2.68962 3.50916 3.57874C2.65978 4.8351 2.13967 6.7065 2.13967 8.50364C2.13967 9.2449 2.30569 9.81402 2.52269 10.1583L0.698525 11.3357C0.230084 10.5722 0 9.5703 0 8.4287C0 6.35274 0.581414 4.18902 1.68707 2.51814C2.66804 1.03628 4.08369 0 5.70739 0L5.67296 2.10836Z" fill="url(#paint1_linear_1907_1800)"/>
</g>
<defs>
<linearGradient id="paint0_linear_1907_1800" x1="2.7494" y1="7.89874" x2="17.6498" y2="8.73812" gradientUnits="userSpaceOnUse">
<stop stop-color="#0064E1"/>
<stop offset="0.4" stop-color="#0064E1"/>
<stop offset="0.83" stop-color="#0073EE"/>
<stop offset="1" stop-color="#0082FB"/>
</linearGradient>
<linearGradient id="paint1_linear_1907_1800" x1="3.09998" y1="9.38398" x2="3.09998" y2="4.4557" gradientUnits="userSpaceOnUse">
<stop stop-color="#0082FB"/>
<stop offset="1" stop-color="#0064E0"/>
</linearGradient>
<clipPath id="clip0_1907_1800">
<rect width="20" height="13" fill="white"/>
</clipPath>
</defs>
</svg>
