<svg width="24" height="24" viewBox="0 0 24 24" fill="none" xmlns="http://www.w3.org/2000/svg">
<path d="M13.0085 24C13.0085 23.6468 13.0042 23.2936 13.0042 22.9404C13.0042 19.7064 13.0042 16.4723 13 13.2383C13 13.0596 13.0297 13 13.2293 13C16.7445 13.0085 20.2597 13.0085 23.7707 13C23.966 13 24 13.0596 24 13.2383C23.9958 16.7404 23.9958 20.2426 23.9958 23.7447C23.9958 23.8298 24 23.9149 24 24C20.3362 24 16.6723 24 13.0085 24Z" fill="#FBB812"/>
<path d="M0.0169688 24C0.0127266 23.9234 0.00424219 23.8468 0.00424219 23.766C0.00424219 20.2638 0.00424219 16.766 0 13.2638C0 13.0426 0.0636329 13 0.2715 13C3.75434 13.0085 7.23718 13.0043 10.7158 13.0043C10.9873 13.0043 10.9873 13.0043 10.9873 13.2851C10.9873 16.766 10.9873 20.2468 10.9873 23.7234C10.9873 23.817 10.9958 23.9064 11 24C7.33899 24 3.67798 24 0.0169688 24Z" fill="#33A0DA"/>
<path d="M10.9955 5.52329C10.9955 7.27219 10.9913 9.01684 10.9998 10.7657C10.9998 10.9487 10.9616 11.004 10.7706 10.9998C7.25679 10.9913 3.74722 10.9913 0.233405 10.9998C0.0466811 10.9998 0 10.953 0 10.7657C0.00424373 7.25517 0.00424373 3.74035 0 0.221272C0 0.0468076 0.0381936 0 0.220674 0C3.73873 0.00425523 7.25679 0.00425523 10.7791 0C10.9531 0 11.004 0.0382971 10.9998 0.217017C10.9913 1.98719 10.9955 3.75737 10.9955 5.52329Z" fill="#EA5328"/>
<path d="M18.5021 0.00425367C20.2555 0.00425367 22.0089 0.00850735 23.7623 0C23.9363 0 24 0.0255221 24 0.225445C23.9915 3.73898 23.9915 7.25251 24 10.7703C24 10.9617 23.9491 11 23.7665 11C20.2513 10.9957 16.7403 10.9957 13.225 11C13.0552 11 13 10.966 13 10.7831C13.0042 7.26102 13.0042 3.73898 13 0.216937C13 0.0382831 13.0509 0 13.2208 0C14.9784 0.00850735 16.7403 0.00425367 18.5021 0.00425367Z" fill="#7EBA2A"/>
</svg>
