<svg width="75" height="68" viewBox="0 0 75 68" fill="none" xmlns="http://www.w3.org/2000/svg">
<g clip-path="url(#clip0_520_307)">
<path d="M6.80062 67.9327C4.54295 67.9452 2.28276 67.9552 0.0250853 67.9652C0.0250853 45.647 0.0326109 23.3288 0 1.0106C0 0.137783 0.200682 -0.0297789 1.03602 0.00523402C2.94501 0.0802616 4.85902 0.0302432 6.77303 0.0302432C6.78557 0.527926 6.80815 1.02311 6.81066 1.52079C6.83323 5.58228 6.8533 9.64128 6.87588 13.7028C6.87588 18.1844 6.87086 22.6686 6.87086 27.1502C6.87086 31.7119 6.87086 36.2711 6.87337 40.8327C6.8533 41.3279 6.81316 41.8231 6.81316 42.3183C6.80815 50.8564 6.80564 59.3946 6.80313 67.9327H6.80062Z" fill="black"/>
<path d="M6.87336 13.6999C6.85329 9.63838 6.83322 5.57938 6.80814 1.51789C6.80563 1.02021 6.78305 0.525027 6.77051 0.0273438H20.5122C20.5122 4.57151 20.3718 9.11819 20.5825 13.6599C16.0119 13.6724 11.4414 13.6849 6.87085 13.6974L6.87336 13.6999Z" fill="#F6CF46"/>
<path d="M74.9824 0.0273438C74.9674 4.58902 74.9523 9.1532 74.9373 13.7149C70.3517 13.7049 65.7636 13.6924 61.178 13.6824C61.4314 9.13069 61.3059 4.57902 61.2407 0.0273438H74.9824Z" fill="#F6CF46"/>
<path d="M61.2407 0.0273438C61.306 4.57902 61.4289 9.13319 61.178 13.6824C58.958 13.6574 56.7404 13.6323 54.5204 13.6098C54.5129 9.08317 54.5028 4.55401 54.4953 0.0273438H61.2407Z" fill="black"/>
<path d="M6.87086 40.83C6.87086 36.2684 6.87086 31.7092 6.86835 27.1475C15.9342 27.14 25.0025 27.1325 34.0683 27.125C36.3461 27.13 38.6263 27.1325 40.9041 27.1375C43.1743 27.1375 45.4445 27.1375 47.7147 27.14C56.7856 27.1475 65.8589 27.155 74.9298 27.1625C74.9298 31.7217 74.9323 36.2809 74.9348 40.8425C72.3008 40.7225 69.6669 40.9151 67.0229 40.655C65.1289 40.4674 63.1673 40.3549 61.2532 40.795C59.0056 40.8125 56.758 40.8325 54.5128 40.85C52.2577 40.8475 50.0025 40.8425 47.7448 40.84C45.1008 40.725 42.4594 40.9151 39.8053 40.655C37.9064 40.4699 35.9347 40.3524 34.0182 40.795C31.7655 40.8125 29.5128 40.8325 27.2602 40.85C25.005 40.845 22.7498 40.8425 20.4947 40.8375C15.9517 40.8375 11.4113 40.8325 6.86835 40.83H6.87086Z" fill="#ED7930"/>
<path d="M61.2533 40.7948C63.1648 40.3547 65.1289 40.4697 67.0229 40.6548C69.6694 40.9149 72.3008 40.7248 74.9348 40.8423C74.9523 49.6181 74.9624 58.3963 75 67.172C75.0025 67.8598 74.7491 67.9898 74.1321 67.9848C69.8525 67.9498 65.5704 67.9448 61.2909 67.9323C61.2784 58.8865 61.2658 49.8406 61.2558 40.7923L61.2533 40.7948Z" fill="#E95829"/>
<path d="M6.87087 40.8301C11.4138 40.8301 15.9542 40.8351 20.4972 40.8376C20.4972 49.4457 20.4696 58.0564 20.5248 66.6646C20.5323 67.8 20.2012 68.0226 19.1376 68.0026C15.0261 67.9275 10.9121 67.9476 6.80063 67.935C6.80314 59.3969 6.80565 50.8588 6.81066 42.3206C6.81066 41.8254 6.8508 41.3303 6.87087 40.8351V40.8301Z" fill="#E95829"/>
<path d="M74.9298 27.1648C65.8589 27.1573 56.7856 27.1498 47.7147 27.1423C47.7147 22.6631 47.7197 18.184 47.7222 13.7048C49.9874 13.6748 52.2552 13.6448 54.5204 13.6123C56.7379 13.6373 58.9579 13.6598 61.1755 13.6848C65.7611 13.6948 70.3492 13.7073 74.9348 13.7173C74.9348 18.199 74.9297 22.6831 74.9272 27.1648H74.9298Z" fill="#F0A63B"/>
<path d="M34.0182 40.7948C35.9372 40.3521 37.9064 40.4696 39.8053 40.6547C42.4594 40.9148 45.1008 40.7272 47.7448 40.8398C47.7398 44.9763 47.7323 49.1153 47.7348 53.2518C47.7348 53.8496 47.8176 54.3798 46.8919 54.3697C42.6149 54.3147 38.3404 54.3147 34.0633 54.2947C34.0483 49.7956 34.0332 45.2939 34.0182 40.7948Z" fill="#E95829"/>
<path d="M61.2533 40.7949C61.2658 49.8407 61.2759 58.8866 61.2884 67.9349C59.4572 67.9449 57.6234 67.8949 55.7947 67.9899C54.7788 68.0424 54.4802 67.7949 54.4853 66.7295C54.5329 58.1038 54.5103 49.4781 54.5103 40.8524C56.758 40.8349 59.0056 40.8149 61.2508 40.7974L61.2533 40.7949Z" fill="black"/>
<path d="M34.0181 40.7949C34.0332 45.2941 34.0482 49.7957 34.0633 54.2949C32.0289 54.3174 29.992 54.3149 27.9575 54.3749C27.1347 54.3999 27.2652 53.8847 27.2652 53.3996C27.2652 49.2155 27.2627 45.0315 27.2602 40.8499C29.5128 40.8324 31.7655 40.8124 34.0181 40.7949Z" fill="black"/>
<path d="M34.0683 27.1252C25.0025 27.1327 15.9342 27.1402 6.86835 27.1477C6.86835 22.666 6.87336 18.1819 6.87336 13.7002C11.4439 13.6877 16.0144 13.6752 20.585 13.6627C24.6965 13.6602 28.8105 13.6852 32.9219 13.6302C33.8902 13.6177 34.0934 13.9478 34.0834 14.8407C34.0407 18.9347 34.0683 23.0312 34.0683 27.1277V27.1252Z" fill="#F0A63B"/>
<path d="M47.7223 13.7024C47.7223 18.1816 47.7172 22.6607 47.7147 27.1399C45.4445 27.1399 43.1743 27.1399 40.9041 27.1374C40.9041 22.9909 40.9317 18.8468 40.884 14.7028C40.874 13.8275 41.1073 13.5699 41.9878 13.6099C43.8968 13.6974 45.8108 13.6774 47.7223 13.7024Z" fill="black"/>
</g>
<defs>
<clipPath id="clip0_520_307">
<rect width="75" height="68" fill="white"/>
</clipPath>
</defs>
</svg>
