<svg width="18" viewBox="0 0 18 20" fill="none" xmlns="http://www.w3.org/2000/svg">
        <path fill-rule="evenodd" clip-rule="evenodd" d="M2.61016 16.1857C1.89939 15.7421 1.36311 15.4073 0.962756 14.9402C0.610265 14.5289 0.344989 14.0502 0.183017 13.5333C-0.000949889 12.9462 -0.000560307 12.3141 -4.40117e-05 11.4762L-5.65287e-05 7.81412C-0.000682973 6.88642 -0.00115529 6.18704 0.218631 5.54984C0.224629 5.53245 0.230744 5.51511 0.236976 5.49782L4.5144 7.87417L5.48569 6.12585L1.37404 3.8416C1.81379 3.47397 2.36896 3.19685 3.06977 2.84704L6.51629 1.1238C7.196 0.783464 7.70918 0.526516 8.26242 0.422719C8.7499 0.331262 9.25013 0.331262 9.7376 0.422719C10.2908 0.526516 10.804 0.783465 11.4837 1.1238L14.9303 2.84704C15.6311 3.19685 16.1863 3.47398 16.626 3.84163L12.5144 6.12585L13.4857 7.87417L17.7631 5.49785C17.7693 5.51513 17.7754 5.53246 17.7814 5.54984C18.0012 6.18704 18.0007 6.88641 18.0001 7.81409L18.0001 11.4762C18.0006 12.3141 18.001 12.9462 17.817 13.5333C17.655 14.0502 17.3898 14.5289 17.0373 14.9402C16.6369 15.4073 16.1006 15.7421 15.3899 16.1857L11.9433 18.3398C11.1943 18.8086 10.6192 19.1686 10 19.3347V15.5H8.00005V19.3347C7.38091 19.1687 6.80574 18.8086 6.05676 18.3398L2.61016 16.1857ZM8.52569 6.84186L7.85475 8.85469L5.84192 9.52563V10.4743L7.85475 11.1453L8.52569 13.1581H9.47437L10.1453 11.1453L12.1581 10.4743V9.52563L10.1453 8.85469L9.47437 6.84186H8.52569Z" fill="currentColor"/>
        </svg>
        