<svg width="18" height="20" viewBox="0 0 18 20" fill="none" xmlns="http://www.w3.org/2000/svg">
<path d="M8.60971 6.63106C8.73268 6.25296 9.26757 6.25288 9.39064 6.63096L10.0446 8.64001C10.0853 8.76488 10.1832 8.86277 10.308 8.90339L12.3169 9.55685C12.695 9.67983 12.695 10.2147 12.317 10.3378L10.308 10.9919C10.1831 11.0325 10.0853 11.1304 10.0446 11.2552L9.39064 13.2643C9.26757 13.6424 8.73268 13.6423 8.60971 13.2642L7.95638 11.2553C7.91577 11.1304 7.81787 11.0325 7.69299 10.9919L5.68343 10.3378C5.30534 10.2147 5.30541 9.6798 5.68353 9.55683L7.69291 8.9034C7.81783 8.86278 7.91578 8.76483 7.95641 8.63991L8.60971 6.63106Z" fill="black"/>
<path fill-rule="evenodd" clip-rule="evenodd" d="M7.56286 0.38508C8.45217 -0.12836 9.54783 -0.12836 10.4371 0.385079L16.5629 3.92177C17.4522 4.43521 18 5.38408 18 6.41096V13.4843C18 14.5112 17.4522 15.4601 16.5629 15.9735L10.4371 19.5102C9.54783 20.0237 8.45217 20.0237 7.56286 19.5102L1.43714 15.9735C0.547833 15.4601 0 14.5112 0 13.4843V6.41096C0 5.38408 0.547833 4.43521 1.43714 3.92177L7.56286 0.38508ZM9.61591 1.80748C9.23478 1.58743 8.76521 1.58743 8.38408 1.80748L2.25836 5.34417C1.87723 5.56421 1.64244 5.97087 1.64244 6.41096V13.4843C1.64244 13.9244 1.87723 14.3311 2.25836 14.5511L8.38408 18.0878C8.76521 18.3079 9.23478 18.3079 9.61591 18.0878L15.7416 14.5511C16.1228 14.3311 16.3576 13.9244 16.3576 13.4843V6.41096C16.3576 5.97087 16.1228 5.56421 15.7416 5.34417L9.61591 1.80748Z" fill="black"/>
<path fill-rule="evenodd" clip-rule="evenodd" d="M0.443563 5.10766C0.622225 4.69079 1.105 4.49768 1.52188 4.67634L5.83329 6.52408C6.25017 6.70274 6.44328 7.18552 6.26462 7.6024C6.08595 8.01928 5.60318 8.21239 5.1863 8.03373L0.87489 6.18598C0.458014 6.00732 0.264902 5.52454 0.443563 5.10766Z" fill="black"/>
<path fill-rule="evenodd" clip-rule="evenodd" d="M17.4026 5.20087C17.571 5.62198 17.3662 6.09991 16.9451 6.26835L12.5899 8.01042C12.1688 8.17887 11.6909 7.97404 11.5224 7.55293C11.354 7.13183 11.5588 6.6539 11.9799 6.48546L16.3351 4.74338C16.7562 4.57494 17.2341 4.77976 17.4026 5.20087Z" fill="black"/>
<path fill-rule="evenodd" clip-rule="evenodd" d="M8.99993 14.4643C9.45348 14.4643 9.82115 14.832 9.82115 15.2855L9.82115 18.981C9.82115 19.4346 9.45348 19.8022 8.99993 19.8022C8.54638 19.8022 8.17871 19.4346 8.17871 18.981L8.17871 15.2855C8.17871 14.832 8.54638 14.4643 8.99993 14.4643Z" fill="black"/>
</svg>
