<svg width="38" height="28" viewBox="0 0 38 28" fill="none" xmlns="http://www.w3.org/2000/svg">
<g clip-path="url(#clip0_556_9652)">
<path d="M28.1441 2.59058C28.833 2.59058 29.5219 2.59058 30.2066 2.59058C31.3603 2.59893 32.5181 2.6031 33.6717 2.61144C34.0991 2.61144 34.5349 2.56138 34.9499 2.6323C35.5599 2.73659 35.0246 3.43743 35.4229 3.68772C35.4229 3.78784 35.4229 3.88379 35.4229 3.98391C35.1034 4.2801 35.3773 4.75983 35.0951 5.06853C34.5888 5.06853 34.0867 5.06853 33.5804 5.06853C33.3273 4.80155 33.1364 4.93087 32.9621 5.16448C32.9496 5.23123 32.9372 5.29797 32.9206 5.36055C32.7546 5.56496 32.7587 5.76937 32.9206 5.97795C32.9206 6.17819 32.9206 6.3826 32.9206 6.58284C32.8293 7.16686 32.6633 7.55483 31.8956 7.5298C30.2315 7.46722 30.2356 7.52145 30.2398 9.17342C30.2481 11.4011 30.2398 13.6329 30.2439 15.8605C30.2439 16.1317 30.161 16.4237 30.3684 16.6615C30.3933 17.8045 30.3933 17.8004 29.2895 17.8212C27.7167 17.8504 27.8578 17.5417 27.8536 19.2938C27.8536 20.3284 27.8536 20.3117 26.7954 20.3325C26.3473 20.3409 25.8866 20.2324 25.4509 20.4327C23.8076 20.2032 22.1559 20.3868 20.5084 20.3367C20.2014 20.3284 20.2512 20.5828 20.247 20.7789C20.2387 21.4839 20.2346 22.1889 20.2263 22.8981C20.0312 22.9356 19.8777 23.0191 19.9399 23.2527C20.1682 24.1287 20.0312 25.0173 20.0437 25.9017C20.0644 27.1698 20.1806 27.0489 18.9149 27.028C18.6037 27.0238 17.9936 27.2324 18.0227 26.8194C18.0559 26.3188 18.5746 26.6901 18.8859 26.7151C19.1722 26.7402 19.4461 26.6609 19.6494 26.469C19.749 26.3772 19.6204 26.2396 19.5166 26.1645C19.2884 26.0018 19.11 25.6597 18.7531 25.9726C18.5456 26.152 18.0725 26.1395 18.0849 26.0644C18.1762 25.4928 17.4625 25.2592 17.5621 24.7545C17.6534 24.2998 17.4127 24.2956 17.1097 24.2956C16.8566 24.2956 16.6035 24.2706 16.3545 24.2956C15.6656 24.3707 15.3876 24.1746 15.5411 23.407C15.649 22.8522 15.4415 22.3558 14.7028 22.3933C14.3293 22.4142 14.1551 22.2056 14.18 21.8343C14.1883 21.6967 14.5493 21.5715 14.2256 21.4339C13.9891 21.3296 13.9061 21.5173 13.8148 21.7384C13.6156 22.2348 13.2462 22.5518 12.6943 22.6144C12.6902 22.4601 12.6819 22.3099 12.6777 22.1555C12.769 22.1389 12.8645 22.1138 12.8645 22.0054C12.8645 21.8927 12.7732 21.8677 12.6819 21.851C12.6694 21.6466 12.6196 21.438 12.657 21.2461C12.8147 20.4327 12.4412 20.3117 11.715 20.32C8.67728 20.3576 5.6396 20.3242 2.60608 20.32C2.59778 19.1561 2.58533 17.9923 2.58533 16.8325C2.58533 15.8091 3.08054 15.296 4.07097 15.2932C4.17056 15.2932 4.27431 15.2849 4.3739 15.2932C4.86773 15.3266 5.04618 15.0805 5.03373 14.6049C5.01298 13.975 5.02958 13.3409 5.02958 12.7068H5.03373C6.98 12.7068 8.92627 12.7068 10.8684 12.7068C12.5906 12.7068 12.6155 12.7068 12.6072 10.9631C12.6072 10.3749 12.8022 10.2372 13.3541 10.2372C15.1676 10.2455 15.1884 10.2247 15.1884 8.3975C15.1884 7.84267 15.3336 7.6174 15.9146 7.6466C16.4873 7.6758 17.2135 7.90107 17.6077 7.55483C18.0517 7.16269 17.753 6.40346 17.7654 5.80691C17.7737 5.32717 17.9563 5.18951 18.4003 5.2062C19.0062 5.23123 19.6121 5.21871 20.218 5.22288C20.2429 6.87068 20.2678 8.51847 20.2927 10.1663C20.1433 10.817 20.2636 11.4803 20.218 12.1311C20.1889 12.5524 20.3591 12.7151 20.7823 12.711C22.9485 12.6984 25.1148 12.6985 27.281 12.7068C27.6711 12.7068 27.8287 12.5608 27.8121 12.1687C27.7872 11.5137 27.7831 10.8546 27.7665 10.1996C27.7955 10.1162 27.8287 10.0369 27.8578 9.95352C28.0238 9.29023 28.0487 8.62694 27.8578 7.96365C27.808 7.59237 27.5258 7.65912 27.2851 7.65495C26.8328 7.65077 26.3805 7.62574 25.9323 7.65912C25.4633 7.69666 25.3098 7.5006 25.3305 7.05423C25.3554 6.57449 25.3181 6.09476 25.343 5.61919C25.3637 5.22706 25.2227 5.07688 24.8284 5.08522C24.2018 5.10191 23.5752 5.06853 22.9485 5.06019C22.8614 4.35101 23.0855 3.62515 22.8033 2.92849C22.7909 2.82837 22.7826 2.72825 22.7701 2.62813C24.5587 2.61979 26.3473 2.60727 28.1358 2.59893L28.1441 2.59058ZM12.769 15.2598C12.5159 15.2598 12.2627 15.2598 12.0137 15.2598C9.89733 15.2598 9.90563 15.2598 10.1131 17.4041C10.1463 17.7336 10.2501 17.8421 10.5655 17.8421C11.9805 17.8337 13.3915 17.8337 14.8066 17.8379C15.0224 17.8379 15.2133 17.8337 15.205 17.5334C15.1884 16.7992 15.3876 15.9607 15.0929 15.3683C14.9145 15.0054 13.9725 15.2974 13.3749 15.2598C13.1757 15.2473 12.9724 15.2598 12.769 15.2598ZM17.0682 23.503C16.7777 23.407 16.479 23.2902 16.1013 23.5447C16.4997 23.7324 16.786 23.7324 17.0682 23.503Z" fill="#010103"/>
<path d="M28.1441 2.59058C26.3555 2.59893 24.567 2.61144 22.7784 2.61979C22.1476 2.61979 21.5168 2.63647 20.8861 2.6031C20.4503 2.58224 20.3341 2.75745 20.3175 3.17461C20.2926 3.85459 20.4503 4.54291 20.218 5.21037C19.6121 5.21037 19.0062 5.22289 18.4003 5.19368C17.9563 5.17283 17.7737 5.31466 17.7654 5.7944C17.753 6.39094 18.0517 7.15018 17.6077 7.54231C17.2135 7.88856 16.4873 7.66329 15.9146 7.63409C15.3336 7.60489 15.1884 7.83016 15.1884 8.38498C15.1884 10.2122 15.1676 10.233 13.3541 10.2247C12.8064 10.2247 12.6072 10.3623 12.6072 10.9505C12.6155 12.6943 12.5906 12.6943 10.8684 12.6943C8.92211 12.6943 6.97584 12.6943 5.03372 12.6943C5.03372 12.0602 5.06692 11.4219 5.03372 10.7878C5.00467 10.2831 5.18726 10.1329 5.68524 10.1371C7.76016 10.1579 9.83092 10.1287 11.9058 10.1538C12.4702 10.1621 12.6362 9.99106 12.6321 9.41538C12.6155 7.60489 12.6404 7.58403 14.4289 7.59237C15.0141 7.59237 15.2216 7.42551 15.2133 6.81645C15.1884 5.07688 15.2133 5.04768 16.9769 5.06436C17.5787 5.06853 17.6824 4.85578 17.6783 4.31347C17.6617 2.5155 17.6824 2.48629 19.4336 2.51132C20.0603 2.51967 20.247 2.34029 20.2345 1.70203C20.2014 0.0125156 20.2346 0.0125158 21.9235 0.0125158C23.6955 0.0125158 25.4633 0.0375456 27.2353 0.00417253C27.8163 -0.00834236 27.9574 0.191896 27.9657 0.746723C27.974 1.35995 27.7333 2.0149 28.1524 2.59058H28.1441Z" fill="#112244"/>
<path d="M12.6985 22.6144C13.2504 22.5518 13.6198 22.2348 13.819 21.7384C13.9061 21.5173 13.9933 21.3296 14.2298 21.4339C14.5535 21.5715 14.1925 21.6967 14.1842 21.8343C14.1593 22.2056 14.3335 22.4142 14.707 22.3933C15.4457 22.3558 15.6532 22.8522 15.5453 23.407C15.3959 24.1746 15.6739 24.3749 16.3587 24.2956C16.6077 24.2664 16.8649 24.2956 17.1139 24.2956C17.4169 24.2956 17.6576 24.2998 17.5663 24.7545C17.4667 25.2592 18.1804 25.497 18.0891 26.0644C18.0767 26.1395 18.5539 26.152 18.7573 25.9726C19.1142 25.6639 19.2926 26.006 19.5208 26.1645C19.6246 26.2396 19.7574 26.3772 19.6536 26.469C19.4503 26.6567 19.1764 26.736 18.8901 26.7151C18.5788 26.6901 18.0601 26.3188 18.0269 26.8194C17.9978 27.2324 18.6079 27.0238 18.9191 27.028C20.1848 27.0489 20.0686 27.1698 20.0479 25.9017C20.0354 25.0173 20.1682 24.1287 19.9441 23.2527C19.886 23.0191 20.0396 22.9356 20.2305 22.8981C20.2637 22.8981 20.2969 22.8981 20.3218 22.9231C20.1765 24.3665 20.2595 25.8182 20.272 27.2658C20.2803 27.8498 20.106 28.0292 19.5457 27.9708C18.9731 27.9124 18.2178 28.1377 17.8568 27.8498C17.4625 27.537 17.7281 26.7485 17.7406 26.1728C17.753 25.618 17.5787 25.3969 17.006 25.4178C16.4334 25.4386 15.6947 25.6681 15.3171 25.3093C14.9353 24.9464 15.1718 24.1996 15.2009 23.6281C15.2341 23.0024 14.9892 22.8564 14.4165 22.8647C12.6653 22.8814 12.6653 22.8647 12.6653 24.6585C12.6653 25.5971 12.657 26.5399 12.6778 27.4785C12.6861 27.8331 12.5865 27.9833 12.2047 27.9625C11.6735 27.9333 11.1423 27.9333 10.6111 27.9625C10.1879 27.9875 10.0924 27.7998 10.109 27.4243C10.1298 26.9696 10.0966 26.5107 10.1173 26.0518C10.1381 25.6013 9.96793 25.4219 9.50314 25.4094C8.88482 25.3969 8.03825 25.7056 7.70212 25.2676C7.39088 24.8588 7.61082 24.0495 7.58177 23.4154C7.57347 23.2694 7.51538 23.1275 7.47803 22.9815C7.73117 22.8188 8.01336 22.8689 8.28724 22.8689C9.54879 22.8647 10.8062 22.8689 12.0677 22.8647C12.3001 22.8647 12.5948 22.9774 12.6819 22.6103L12.6985 22.6144Z" fill="#030309"/>
<path d="M12.6984 22.6144C12.6113 22.9815 12.3167 22.8647 12.0843 22.8689C10.8227 22.8772 9.56533 22.8689 8.30378 22.8731C8.02989 22.8731 7.7477 22.823 7.49456 22.9857C6.07117 22.798 4.64363 22.9106 3.21608 22.9189C2.64341 22.9189 2.46081 22.7729 2.49401 22.2056C2.52721 21.6049 2.46911 21 2.45251 20.3951C2.50231 20.3659 2.55626 20.3409 2.60606 20.3117C5.64373 20.32 8.68141 20.3492 11.7149 20.3117C12.4453 20.3033 12.8146 20.4285 12.6569 21.2378C12.6196 21.4297 12.6735 21.6424 12.6818 21.8427C12.6818 21.947 12.6818 22.0471 12.6818 22.1514C12.686 22.3057 12.6943 22.4559 12.6984 22.6102V22.6144Z" fill="#F5F8F8"/>
<path d="M35.4272 3.68772C35.0288 3.4416 35.5599 2.74076 34.9541 2.6323C34.5391 2.56138 34.1034 2.61144 33.6759 2.61144C32.5223 2.6031 31.3645 2.59893 30.2108 2.59058C30.5304 2.01907 30.3768 1.3975 30.3685 0.805124C30.3602 0.250297 30.4598 -0.0125157 31.1072 -7.97462e-07C33.1779 0.0417155 35.2487 0.0292006 37.3195 -7.97462e-07C37.8382 -0.00834406 38.0083 0.133491 38.0042 0.679975C37.9959 2.56973 38.0166 2.62396 36.1575 2.58641C35.1699 2.56555 35.6969 3.33731 35.4355 3.68355L35.4272 3.68772Z" fill="#112244"/>
<path d="M2.61019 20.32C2.56039 20.3492 2.50645 20.3743 2.45665 20.4035C1.83417 20.27 1.19925 20.3451 0.572625 20.3451C0.161792 20.3451 -0.00420129 20.2324 0.00409838 19.7861C0.0331472 18.4678 0.037297 17.1496 0.00409838 15.8314C-0.00835112 15.3057 0.186691 15.143 0.659772 15.2014C0.684671 15.2014 0.70957 15.2014 0.734469 15.2014C2.57699 15.2014 2.60604 15.2014 2.52305 13.3325C2.49815 12.7944 2.65169 12.6734 3.13722 12.6985C3.76799 12.7318 4.39877 12.7068 5.02954 12.7068C5.02954 13.3409 5.01294 13.9708 5.03369 14.6049C5.04614 15.0805 4.8677 15.3266 4.37387 15.2932C4.27427 15.2849 4.17468 15.2932 4.07093 15.2932C3.07774 15.2988 2.58253 15.8119 2.58529 16.8325C2.58529 17.9964 2.59774 19.1603 2.60604 20.32H2.61019Z" fill="#112244"/>
<path d="M20.3301 22.9231C20.301 22.9023 20.272 22.8939 20.2388 22.8981C20.2471 22.1931 20.2512 21.4881 20.2595 20.7789C20.2595 20.5828 20.2139 20.3284 20.521 20.3367C22.1684 20.3868 23.8201 20.2032 25.4634 20.4327C25.2518 20.975 25.3472 21.5423 25.3721 22.0888C25.4012 22.7062 25.231 22.9315 24.5795 22.9106C23.1644 22.8647 21.7493 22.9106 20.3342 22.9148L20.3301 22.9231Z" fill="#F5F8F8"/>
<path d="M30.3767 16.6615C30.1692 16.4196 30.2522 16.1275 30.2522 15.8606C30.2481 13.6329 30.2522 11.4011 30.2481 9.17342C30.2439 7.51729 30.2356 7.46723 31.9039 7.5298C32.6716 7.559 32.8334 7.17104 32.9289 6.58284C33.0008 7.3087 32.6813 7.67303 31.9703 7.67581C30.9356 7.67581 30.4182 8.18892 30.4182 9.21514C30.4099 11.6973 30.3933 14.1794 30.3809 16.6615H30.3767Z" fill="#112244"/>
<path d="M35.0992 5.06853C35.3814 4.75983 35.1075 4.2801 35.4271 3.98391C35.4229 4.37604 35.8794 4.91418 35.0992 5.06853Z" fill="#112244"/>
<path d="M32.9663 5.16448C33.1406 4.93087 33.3315 4.80155 33.5846 5.06854C33.3937 5.19786 33.1738 5.15197 32.9663 5.16448Z" fill="#112244"/>
<path d="M32.9247 5.97795C32.7629 5.77354 32.7587 5.56913 32.9247 5.36055C32.9994 5.56496 32.9952 5.76937 32.9247 5.97795Z" fill="#112244"/>
<path d="M20.2926 10.1538C22.7867 10.1663 25.2766 10.1788 27.7706 10.1871C27.7831 10.8421 27.7914 11.5012 27.8163 12.1561C27.8329 12.5441 27.671 12.6943 27.2851 12.6943C25.1189 12.6859 22.9527 12.6859 20.7865 12.6985C20.359 12.6985 20.193 12.5441 20.2221 12.1186C20.2677 11.4636 20.1474 10.8045 20.2968 10.1538H20.2926Z" fill="#112244"/>
<path d="M12.769 15.2598C12.9724 15.2598 13.1716 15.2515 13.3749 15.2598C13.9725 15.2974 14.9145 15.0054 15.0929 15.3683C15.3876 15.9607 15.1884 16.7992 15.205 17.5334C15.2133 17.8337 15.0224 17.8379 14.8066 17.8379C13.3915 17.8379 11.9806 17.8337 10.5655 17.8421C10.2501 17.8421 10.1422 17.7336 10.1131 17.404C9.90564 15.2598 9.89735 15.2598 12.0138 15.2598C12.2669 15.2598 12.52 15.2598 12.769 15.2598Z" fill="#F5F8F8"/>
<path d="M22.9528 5.04767C22.5627 4.35936 22.8366 3.62932 22.8075 2.91597C23.0897 3.60846 22.8656 4.3385 22.9528 5.04767Z" fill="#112244"/>
<path d="M17.0682 23.503C16.786 23.7324 16.4997 23.7324 16.1013 23.5447C16.479 23.2902 16.7736 23.407 17.0682 23.503Z" fill="#030309"/>
<path d="M27.862 9.94518C27.7665 9.28189 27.7956 8.6186 27.862 7.95531C28.0528 8.6186 28.0279 9.28189 27.862 9.94518Z" fill="#112244"/>
<path d="M12.686 22.1597C12.686 22.0554 12.686 21.9553 12.686 21.851C12.7773 21.8677 12.8728 21.8927 12.8686 22.0054C12.8686 22.118 12.7732 22.143 12.6819 22.1555L12.686 22.1597Z" fill="#030309"/>
</g>
<defs>
<clipPath id="clip0_556_9652">
<rect width="38" height="28" fill="white"/>
</clipPath>
</defs>
</svg>
